<?xml version="1.0" encoding="utf-8"?>
<!-- Generator: Adobe Illustrator 19.2.1, SVG Export Plug-In . SVG Version: 6.00 Build 0)  -->
<svg version="1.1" id="Layer_1" xmlns="http://www.w3.org/2000/svg" xmlns:xlink="http://www.w3.org/1999/xlink" x="0px" y="0px"
	 width="32px" height="32px" viewBox="0 0 32 32" style="enable-background:new 0 0 32 32;" xml:space="preserve">
<style type="text/css">
	.st0{fill:#C69C6D;}
	.st1{fill:#603813;}
	.st2{fill:none;}
	.st3{font-family:'MyriadPro-Regular';}
	.st4{font-size:16px;}
</style>
<g>
	<g>
		<path class="st0" d="M15.5,20.2c-5.1,0-9.2-4.3-9.2-9.6c0-5.3,4.1-9.6,9.2-9.6s9.2,4.3,9.2,9.6C24.7,15.9,20.6,20.2,15.5,20.2z"/>
		<path class="st1" d="M15.5,1.6c4.8,0,8.7,4.1,8.7,9.1s-3.9,9.1-8.7,9.1s-8.7-4.1-8.7-9.1S10.7,1.6,15.5,1.6 M15.5,0.6
			c-5.4,0-9.7,4.5-9.7,10.1s4.3,10.1,9.7,10.1s9.7-4.5,9.7-10.1S20.9,0.6,15.5,0.6L15.5,0.6z"/>
	</g>
	<g>
		<polygon class="st0" points="7.4,15.2 24.3,13.7 15.7,30.4 		"/>
		<path class="st1" d="M23.4,14.2l-7.7,15.1L8.2,15.7L23.4,14.2 M25.1,13.1L6.6,14.8l9.2,16.6L25.1,13.1L25.1,13.1z"/>
	</g>
	<rect x="12.3" y="5.1" class="st2" width="13.9" height="16.2"/>
	<text transform="matrix(1.2443 0 0 1 10.3442 13.4656)" class="st1 st3 st4">1</text>
</g>
</svg>
